<svg id="eIB46jnsaiL1" xmlns="http://www.w3.org/2000/svg" xmlns:xlink="http://www.w3.org/1999/xlink" viewBox="-30 -10 620 160" shape-rendering="geometricPrecision" text-rendering="geometricPrecision">
<style><![CDATA[
#eIB46jnsaiL30 {animation: eIB46jnsaiL30_c_o 2000ms linear infinite normal forwards}@keyframes eIB46jnsaiL30_c_o { 0% {opacity: 1;animation-timing-function: cubic-bezier(0.47,0,0.745,0.715)} 23.333333% {opacity: 0.47;animation-timing-function: cubic-bezier(0.08,0.035,0.675,0.875)} 50% {opacity: 1;animation-timing-function: cubic-bezier(0.365,0.175,0.88,0.93)} 100% {opacity: 1}} #eIB46jnsaiL31 {animation: eIB46jnsaiL31__fl 2000ms linear infinite normal forwards}@keyframes eIB46jnsaiL31__fl { 0% {filter: contrast(94%) blur(4.242641px)} 23.333333% {filter: contrast(94%) blur(0px)} 50% {filter: contrast(94%) blur(4.242641px)} 100% {filter: contrast(94%) blur(4.242641px)}} #eIB46jnsaiL33_to {animation: eIB46jnsaiL33_to__to 2000ms linear infinite normal forwards}@keyframes eIB46jnsaiL33_to__to { 0% {offset-distance: 0%;animation-timing-function: cubic-bezier(0.26,0.01,0.88,0.965)} 23.333333% {offset-distance: 26.534619%;animation-timing-function: cubic-bezier(0,0,0.735,0.905)} 50% {offset-distance: 52.75641%;animation-timing-function: cubic-bezier(0.49,0.36,0.885,0.905)} 75% {offset-distance: 77.666258%;animation-timing-function: cubic-bezier(0,0,0.515,0.66)} 100% {offset-distance: 100%}} #eIB46jnsaiL33_ts {animation: eIB46jnsaiL33_ts__ts 2000ms linear infinite normal forwards}@keyframes eIB46jnsaiL33_ts__ts { 0% {transform: rotate(23.887777deg) scale(2.024646,2.033083)} 50% {transform: rotate(23.887777deg) scale(2.024646,2.033083)} 76.666667% {transform: rotate(23.887777deg) scale(5,3)} 100% {transform: rotate(23.887777deg) scale(2.024646,2.033083)}} #eIB46jnsaiL36 {animation: eIB46jnsaiL36__fl 2000ms linear infinite normal forwards}@keyframes eIB46jnsaiL36__fl { 0% {filter: contrast(94%) blur(4.242641px)} 23.333333% {filter: contrast(94%) blur(0px)} 50% {filter: contrast(94%) blur(4.242641px)} 100% {filter: contrast(94%) blur(4.242641px)}} #eIB46jnsaiL38_to {animation: eIB46jnsaiL38_to__to 2000ms linear infinite normal forwards}@keyframes eIB46jnsaiL38_to__to { 0% {offset-distance: 0%;animation-timing-function: cubic-bezier(0.26,0.01,0.88,0.965)} 23.333333% {offset-distance: 26.534619%;animation-timing-function: cubic-bezier(0,0,0.735,0.905)} 50% {offset-distance: 52.75641%;animation-timing-function: cubic-bezier(0.49,0.36,0.885,0.905)} 75% {offset-distance: 77.666258%;animation-timing-function: cubic-bezier(0,0,0.515,0.66)} 100% {offset-distance: 100%}} #eIB46jnsaiL38_ts {animation: eIB46jnsaiL38_ts__ts 2000ms linear infinite normal forwards}@keyframes eIB46jnsaiL38_ts__ts { 0% {transform: rotate(23.887777deg) scale(2.024646,2.033083)} 50% {transform: rotate(23.887777deg) scale(2.024646,2.033083)} 76.666667% {transform: rotate(23.887777deg) scale(5,3)} 100% {transform: rotate(23.887777deg) scale(2.024646,2.033083)}} #eIB46jnsaiL41 {animation: eIB46jnsaiL41__fl 2000ms linear infinite normal forwards}@keyframes eIB46jnsaiL41__fl { 0% {filter: contrast(94%) blur(4.242641px)} 23.333333% {filter: contrast(94%) blur(0px)} 50% {filter: contrast(94%) blur(4.242641px)} 100% {filter: contrast(94%) blur(4.242641px)}} #eIB46jnsaiL43_to {animation: eIB46jnsaiL43_to__to 2000ms linear infinite normal forwards}@keyframes eIB46jnsaiL43_to__to { 0% {offset-distance: 0%;animation-timing-function: cubic-bezier(0.26,0.01,0.88,0.965)} 23.333333% {offset-distance: 26.534619%;animation-timing-function: cubic-bezier(0,0,0.735,0.905)} 50% {offset-distance: 52.75641%;animation-timing-function: cubic-bezier(0.49,0.36,0.885,0.905)} 75% {offset-distance: 77.666258%;animation-timing-function: cubic-bezier(0,0,0.515,0.66)} 100% {offset-distance: 100%}} #eIB46jnsaiL46 {animation: eIB46jnsaiL46__fl 2000ms linear infinite normal forwards}@keyframes eIB46jnsaiL46__fl { 0% {filter: contrast(94%) blur(4.242641px)} 23.333333% {filter: contrast(94%) blur(0px)} 50% {filter: contrast(94%) blur(4.242641px)} 100% {filter: contrast(94%) blur(4.242641px)}} #eIB46jnsaiL48_to {animation: eIB46jnsaiL48_to__to 2000ms linear infinite normal forwards}@keyframes eIB46jnsaiL48_to__to { 0% {offset-distance: 0%;animation-timing-function: cubic-bezier(0.26,0.01,0.88,0.965)} 23.333333% {offset-distance: 26.534619%;animation-timing-function: cubic-bezier(0,0,0.735,0.905)} 50% {offset-distance: 52.75641%;animation-timing-function: cubic-bezier(0.49,0.36,0.885,0.905)} 75% {offset-distance: 77.666258%;animation-timing-function: cubic-bezier(0,0,0.515,0.66)} 100% {offset-distance: 100%}} #eIB46jnsaiL53_to {animation: eIB46jnsaiL53_to__to 2000ms linear infinite normal forwards}@keyframes eIB46jnsaiL53_to__to { 0% {offset-distance: 0%;animation-timing-function: cubic-bezier(0.26,0.01,0.88,0.965)} 23.333333% {offset-distance: 26.534619%;animation-timing-function: cubic-bezier(0,0,0.735,0.905)} 50% {offset-distance: 52.75641%;animation-timing-function: cubic-bezier(0.49,0.36,0.885,0.905)} 75% {offset-distance: 77.666258%;animation-timing-function: cubic-bezier(0,0,0.515,0.66)} 100% {offset-distance: 100%}}
]]></style>
<defs><filter id="eIB46jnsaiL8-filter" x="-150%" width="400%" y="-150%" height="400%"><feGaussianBlur id="eIB46jnsaiL8-filter-blur-0" stdDeviation="1,1" result="result"/></filter><filter id="eIB46jnsaiL13-filter" x="-150%" width="400%" y="-150%" height="400%"><feGaussianBlur id="eIB46jnsaiL13-filter-blur-0" stdDeviation="1,1" result="result"/></filter><filter id="eIB46jnsaiL33-filter" x="-150%" width="400%" y="-150%" height="400%"><feGaussianBlur id="eIB46jnsaiL33-filter-blur-0" stdDeviation="3,3" result="result"/></filter><filter id="eIB46jnsaiL38-filter" x="-150%" width="400%" y="-150%" height="400%"><feGaussianBlur id="eIB46jnsaiL38-filter-blur-0" stdDeviation="3,3" result="result"/></filter><filter id="eIB46jnsaiL43-filter" x="-150%" width="400%" y="-150%" height="400%"><feGaussianBlur id="eIB46jnsaiL43-filter-blur-0" stdDeviation="3,3" result="result"/></filter><filter id="eIB46jnsaiL48-filter" x="-150%" width="400%" y="-150%" height="400%"><feGaussianBlur id="eIB46jnsaiL48-filter-blur-0" stdDeviation="3,3" result="result"/></filter><filter id="eIB46jnsaiL51-filter" x="-150%" width="400%" y="-150%" height="400%"><feComponentTransfer id="eIB46jnsaiL51-filter-contrast-0" result="result"><feFuncR id="eIB46jnsaiL51-filter-contrast-0-R" type="linear" slope="0.94" intercept="0.03"/><feFuncG id="eIB46jnsaiL51-filter-contrast-0-G" type="linear" slope="0.94" intercept="0.03"/><feFuncB id="eIB46jnsaiL51-filter-contrast-0-B" type="linear" slope="0.94" intercept="0.03"/></feComponentTransfer><feGaussianBlur id="eIB46jnsaiL51-filter-blur-0" stdDeviation="3,3" result="result"/></filter><filter id="eIB46jnsaiL53-filter" x="-150%" width="400%" y="-150%" height="400%"><feGaussianBlur id="eIB46jnsaiL53-filter-blur-0" stdDeviation="3,3" result="result"/></filter></defs><g style="isolation:isolate"><g><path d="M165.12,82.32c0,0,10.01,10.9,1.68,17.04s-31.41,1.54-33.6,1.2-16.83-2.38-47.28-14.16-49.96-27.44-52.32-29.04-18-14.28-18-23.28s13.44-9.36,13.44-9.36-25.43-4.7-28.56,5.04c-2.25,6.98,9.17,22.18,26.16,34.8c3.92,2.91,19.83,14.15,42,24s37.74,14.87,47.52,18c21.41,6.85,61.47,10.36,65.28-.72s-16.32-23.52-16.32-23.52Z" fill="#0b70fd" stroke-width="0"/></g><g opacity="0.42"><g style="mix-blend-mode:overlay" mask="url(#eIB46jnsaiL9)"><path d="M165.12,82.32c0,0,10.01,10.9,1.68,17.04s-31.41,1.54-33.6,1.2-16.83-2.38-47.28-14.16-49.96-27.44-52.32-29.04-18-14.28-18-23.28s13.44-9.36,13.44-9.36-25.43-4.7-28.56,5.04c-2.25,6.98,9.17,22.18,26.16,34.8c3.92,2.91,19.83,14.15,42,24s37.74,14.87,47.52,18c21.41,6.85,61.47,10.36,65.28-.72s-16.32-23.52-16.32-23.52Z" filter="url(#eIB46jnsaiL8-filter)" fill="#0550b8" stroke="#fff" stroke-width="3" stroke-miterlimit="1"/><mask id="eIB46jnsaiL9" mask-type="luminance" x="-150%" y="-150%" height="400%" width="400%"><g><path d="M165.12,82.32c0,0,10.01,10.9,1.68,17.04s-31.41,1.54-33.6,1.2-16.83-2.38-47.28-14.16-49.96-27.44-52.32-29.04-18-14.28-18-23.28s13.44-9.36,13.44-9.36-25.43-4.7-28.56,5.04c-2.25,6.98,9.17,22.18,26.16,34.8c3.92,2.91,19.83,14.15,42,24s37.74,14.87,47.52,18c21.41,6.85,61.47,10.36,65.28-.72s-16.32-23.52-16.32-23.52Z" fill="#0b70fd" stroke-width="0"/></g></mask></g><g style="mix-blend-mode:overlay" mask="url(#eIB46jnsaiL14)"><path d="M165.12,82.32c0,0,10.01,10.9,1.68,17.04s-31.41,1.54-33.6,1.2-16.83-2.38-47.28-14.16-49.96-27.44-52.32-29.04-18-14.28-18-23.28s13.44-9.36,13.44-9.36-25.43-4.7-28.56,5.04c-2.25,6.98,9.17,22.18,26.16,34.8c3.92,2.91,19.83,14.15,42,24s37.74,14.87,47.52,18c21.41,6.85,61.47,10.36,65.28-.72s-16.32-23.52-16.32-23.52Z" filter="url(#eIB46jnsaiL13-filter)" fill="#0550b8" stroke="#fff" stroke-width="3" stroke-miterlimit="1"/><mask id="eIB46jnsaiL14" mask-type="luminance" x="-150%" y="-150%" height="400%" width="400%"><g><path d="M165.12,82.32c0,0,10.01,10.9,1.68,17.04s-31.41,1.54-33.6,1.2-16.83-2.38-47.28-14.16-49.96-27.44-52.32-29.04-18-14.28-18-23.28s13.44-9.36,13.44-9.36-25.43-4.7-28.56,5.04c-2.25,6.98,9.17,22.18,26.16,34.8c3.92,2.91,19.83,14.15,42,24s37.74,14.87,47.52,18c21.41,6.85,61.47,10.36,65.28-.72s-16.32-23.52-16.32-23.52Z" fill="#0b70fd" stroke-width="0"/></g></mask></g></g></g><g transform="translate(0 0.000001)"><g style="isolation:isolate"><g><path d="M250.8,68.16c0,0,24.95-4.84,25.2-33.12.11-12.21-6.4-22.47-14.4-27.84C251.07,0.13,238.76,0,234.72,0h-46.56v113.04h27.84v-42.48h6.48l23.28,42.48h31.2L250.8,68.16ZM235.2,50.88h-19.44v-27.84h19.2c0,0,13.12-.13,12.96,13.92s-12.72,13.92-12.72,13.92Z" fill="#fff" stroke-width="0"/></g></g><g style="isolation:isolate"><g><path d="M368.4,54.96c0,0,20.76-4.05,18.96-28.56s-28.14-26.46-36.24-26.16C346.02,0.34,300,0,300,0v113.04h55.2c4.7,0,32.24-1.84,35.04-27.36.96-27.12-21.84-30.72-21.84-30.72ZM327.6,22.08h19.92c2.16,0,12.42,1.14,12.24,12-.24,11.76-10.96,11.68-12.72,11.76s-19.44,0-19.44,0v-23.76Zm21.12,68.88c-1.92.08-21.12,0-21.12,0v-25.2h22.08c0,0,12.72.32,12.72,12.72s-11.76,12.4-13.68,12.48Z" fill="#fff" stroke-width="0"/></g></g><g style="isolation:isolate"><g><polygon points="482.16,22.08 482.16,0 412.8,0 412.8,113.04 482.16,113.04 482.16,90.96 440.4,90.96 440.4,66.24 477.36,66.24 477.36,44.88 440.4,44.88 440.4,22.08 482.16,22.08" fill="#fff" stroke-width="0"/></g></g><g style="isolation:isolate"><g><polygon points="500.88,0 500.88,22.32 530.64,22.32 530.64,113.04 558.48,113.04 558.48,22.32 588.24,22.32 588.24,0 500.88,0" fill="#fff" stroke-width="0"/></g></g></g><g id="eIB46jnsaiL30" style="mix-blend-mode:color-dodge" transform="translate(-.176811 0)"><g id="eIB46jnsaiL31" style="mix-blend-mode:color-dodge;filter:contrast(94%) blur(4.242641px)" transform="translate(.000001 0)"><g mask="url(#eIB46jnsaiL34)"><g id="eIB46jnsaiL33_to" style="offset-path:path('M-4.001013,26.002918C5.950778,1.517161,66.497011,12.627867,112.076445,31.957285C157.655878,51.286703,205.620627,99.862152,180.652613,115.933517C155.684599,132.004882,114.306467,125.50532,68.727033,106.175902Q23.1476,86.846484,-5.133621,35.342684');offset-rotate:0deg"><g id="eIB46jnsaiL33_ts" transform="rotate(23.887777) scale(2.024646,2.033083)"><ellipse rx="15.62718" ry="15.62718" transform="translate(3.772591,-6.340613)" filter="url(#eIB46jnsaiL33-filter)" fill="#5675b3" stroke-width="0"/></g></g><mask id="eIB46jnsaiL34" mask-type="luminance" x="-150%" y="-150%" height="400%" width="400%"><path d="M142.0703,65.555622Q16.555256,8.304484,1.123564,25.789991C-8.966115,36.915949,23.664183,68.824156,71.013979,89.196267c59.421302,26.074131,100.679396,28.394899,110.470155,16.341101q8.490965-22.708376-97.356674-64.097809q98.005752,37.867174,82.670127,55.854823c-9.58956,11.029626-57.555368-.378953-91.005078-15.449702C42.574374,65.913888,12.730533,45.352336,17.140117,30.139272Q21.549701,14.926208,142.0703,65.555622Z" transform="translate(.326252 0.61131)" fill="#fff" stroke-width="1.216"/></mask></g></g><g id="eIB46jnsaiL36" style="mix-blend-mode:color-dodge;filter:contrast(94%) blur(4.242641px)" transform="translate(.000001 0)"><g mask="url(#eIB46jnsaiL39)"><g id="eIB46jnsaiL38_to" style="offset-path:path('M-4.001013,26.002918C5.950778,1.517161,66.497011,12.627867,112.076445,31.957285C157.655878,51.286703,205.620627,99.862152,180.652613,115.933517C155.684599,132.004882,114.306467,125.50532,68.727033,106.175902Q23.1476,86.846484,-5.133621,35.342684');offset-rotate:0deg"><g id="eIB46jnsaiL38_ts" transform="rotate(23.887777) scale(2.024646,2.033083)"><ellipse rx="15.62718" ry="15.62718" transform="translate(3.772591,-6.340613)" filter="url(#eIB46jnsaiL38-filter)" fill="#5675b3" stroke-width="0"/></g></g><mask id="eIB46jnsaiL39" mask-type="luminance" x="-150%" y="-150%" height="400%" width="400%"><path d="M142.0703,65.555622Q16.555256,8.304484,1.123564,25.789991C-8.966115,36.915949,23.664183,68.824156,71.013979,89.196267c59.421302,26.074131,100.679396,28.394899,110.470155,16.341101q8.490965-22.708376-97.356674-64.097809q98.005752,37.867174,82.670127,55.854823c-9.58956,11.029626-57.555368-.378953-91.005078-15.449702C42.574374,65.913888,12.730533,45.352336,17.140117,30.139272Q21.549701,14.926208,142.0703,65.555622Z" transform="translate(.326252 0.61131)" fill="#fff" stroke-width="1.216"/></mask></g></g><g id="eIB46jnsaiL41" style="mix-blend-mode:color-dodge;filter:contrast(94%) blur(4.242641px)" transform="translate(.000001 0)"><g mask="url(#eIB46jnsaiL44)"><g id="eIB46jnsaiL43_to" style="offset-path:path('M-4.001013,26.002918C5.950778,1.517161,66.497011,12.627867,112.076445,31.957285C157.655878,51.286703,205.620627,99.862152,180.652613,115.933517C155.684599,132.004882,114.306467,125.50532,68.727033,106.175902Q23.1476,86.846484,-5.133621,35.342684');offset-rotate:0deg"><ellipse rx="15.62718" ry="15.62718" transform="rotate(23.887777) scale(2.024646,2.033083) translate(3.772591,-6.340613)" filter="url(#eIB46jnsaiL43-filter)" fill="#5675b3" stroke-width="0"/></g><mask id="eIB46jnsaiL44" mask-type="luminance" x="-150%" y="-150%" height="400%" width="400%"><path d="M142.0703,65.555622Q16.555256,8.304484,1.123564,25.789991C-8.966115,36.915949,23.664183,68.824156,71.013979,89.196267c59.421302,26.074131,100.679396,28.394899,110.470155,16.341101q8.490965-22.708376-97.356674-64.097809q98.005752,37.867174,82.670127,55.854823c-9.58956,11.029626-57.555368-.378953-91.005078-15.449702C42.574374,65.913888,12.730533,45.352336,17.140117,30.139272Q21.549701,14.926208,142.0703,65.555622Z" transform="translate(.326252 0.61131)" fill="#fff" stroke-width="1.216"/></mask></g></g><g id="eIB46jnsaiL46" style="mix-blend-mode:color-dodge;filter:contrast(94%) blur(4.242641px)" transform="translate(.000001 0)"><g mask="url(#eIB46jnsaiL49)"><g id="eIB46jnsaiL48_to" style="offset-path:path('M-4.001013,26.002918C5.950778,1.517161,66.497011,12.627867,112.076445,31.957285C157.655878,51.286703,205.620627,99.862152,180.652613,115.933517C155.684599,132.004882,114.306467,125.50532,68.727033,106.175902Q23.1476,86.846484,-5.133621,35.342684');offset-rotate:0deg"><ellipse rx="15.62718" ry="15.62718" transform="rotate(23.887777) scale(2.024646,2.033083) translate(3.772591,-6.340613)" filter="url(#eIB46jnsaiL48-filter)" fill="#5675b3" stroke-width="0"/></g><mask id="eIB46jnsaiL49" mask-type="luminance" x="-150%" y="-150%" height="400%" width="400%"><path d="M142.0703,65.555622Q16.555256,8.304484,1.123564,25.789991C-8.966115,36.915949,23.664183,68.824156,71.013979,89.196267c59.421302,26.074131,100.679396,28.394899,110.470155,16.341101q8.490965-22.708376-97.356674-64.097809q98.005752,37.867174,82.670127,55.854823c-9.58956,11.029626-57.555368-.378953-91.005078-15.449702C42.574374,65.913888,12.730533,45.352336,17.140117,30.139272Q21.549701,14.926208,142.0703,65.555622Z" transform="translate(.326252 0.61131)" fill="#fff" stroke-width="1.216"/></mask></g></g><g style="mix-blend-mode:color-dodge" transform="translate(.000001 0)" opacity="0.32" filter="url(#eIB46jnsaiL51-filter)"><g mask="url(#eIB46jnsaiL54)"><g id="eIB46jnsaiL53_to" style="offset-path:path('M-4.001013,26.002918C5.950778,1.517161,66.497011,12.627867,112.076445,31.957285C157.655878,51.286703,205.620627,99.862152,180.652613,115.933517C155.684599,132.004882,114.306467,125.50532,68.727033,106.175902Q23.1476,86.846484,-5.133621,35.342684');offset-rotate:0deg"><ellipse rx="15.62718" ry="15.62718" transform="rotate(23.887777) scale(2.024646,2.033083) translate(3.772591,-6.340613)" filter="url(#eIB46jnsaiL53-filter)" fill="#5675b3" stroke-width="0"/></g><mask id="eIB46jnsaiL54" mask-type="luminance" x="-150%" y="-150%" height="400%" width="400%"><path d="M142.0703,65.555622Q16.555256,8.304484,1.123564,25.789991C-8.966115,36.915949,23.664183,68.824156,71.013979,89.196267c59.421302,26.074131,100.679396,28.394899,110.470155,16.341101q8.490965-22.708376-97.356674-64.097809q98.005752,37.867174,82.670127,55.854823c-9.58956,11.029626-57.555368-.378953-91.005078-15.449702C42.574374,65.913888,12.730533,45.352336,17.140117,30.139272Q21.549701,14.926208,142.0703,65.555622Z" transform="translate(.326252 0.61131)" fill="#fff" stroke-width="1.216"/></mask></g></g></g><g style="isolation:isolate"><g><path d="M92.36,0.97c-27.89,0-51.59,17.89-60.29,42.81c2.64,1.98,6.43,4.85,8.97,6.86c2.87,2.27,7.01,4.87,9.4,6.32C54.15,37.2,71.48,22.24,92.32,22.24c23.54,0,42.63,19.08,42.63,42.63c0,9.07-2.84,17.47-7.67,24.38c1.83.61,5.47,1.71,9.77,2.44c4.48.76,9.35,1.41,12.38,1.8c4.34-8.62,6.79-18.35,6.79-28.65-.01-35.28-28.6-63.87-63.86-63.87Z" fill="#fff" stroke-width="0"/></g></g></svg>
