<svg id="orbet_logo-2" xmlns="http://www.w3.org/2000/svg" xmlns:xlink="http://www.w3.org/1999/xlink" viewBox="-30 -10 620 160" shape-rendering="geometricPrecision" text-rendering="geometricPrecision">
<style><![CDATA[
#orbet_logo-2-s-ellipse2_to {animation: orbet_logo-2-s-ellipse2_to__to 3000ms linear infinite normal forwards}@keyframes orbet_logo-2-s-ellipse2_to__to { 0% {offset-distance: 0%} 25% {offset-distance: 25%} 50% {offset-distance: 50%} 75% {offset-distance: 75%} 100% {offset-distance: 100%}} #orbet_logo-2-s-ellipse3_to {animation: orbet_logo-2-s-ellipse3_to__to 3000ms linear infinite normal forwards}@keyframes orbet_logo-2-s-ellipse3_to__to { 0% {offset-distance: 0%} 25% {offset-distance: 25%} 50% {offset-distance: 50%} 75% {offset-distance: 75%} 100% {offset-distance: 100%}} #orbet_logo-2-s-ellipse4_to {animation: orbet_logo-2-s-ellipse4_to__to 3000ms linear infinite normal forwards}@keyframes orbet_logo-2-s-ellipse4_to__to { 0% {offset-distance: 0%;animation-timing-function: cubic-bezier(0.42,0,1,1)} 25% {offset-distance: 25%;animation-timing-function: cubic-bezier(0,0,0.58,1)} 50% {offset-distance: 50%;animation-timing-function: cubic-bezier(0.42,0,1,1)} 75% {offset-distance: 75%;animation-timing-function: cubic-bezier(0,0,0.58,1)} 100% {offset-distance: 100%}} #orbet_logo-2-u-sph1_to {animation: orbet_logo-2-u-sph1_to__to 3000ms linear infinite normal forwards}@keyframes orbet_logo-2-u-sph1_to__to { 0% {offset-distance: 0%;animation-timing-function: cubic-bezier(0.26,0.01,1,1)} 26.666667% {offset-distance: 25.606778%;animation-timing-function: cubic-bezier(0,0,0.7,1.01)} 50% {offset-distance: 50.126836%;animation-timing-function: cubic-bezier(0.26,0.01,0.88,0.965)} 76.666667% {offset-distance: 75.979861%;animation-timing-function: cubic-bezier(0,0,0.7,1.01)} 100% {offset-distance: 100%}} #orbet_logo-2-u-sph1_ts {animation: orbet_logo-2-u-sph1_ts__ts 3000ms linear infinite normal forwards}@keyframes orbet_logo-2-u-sph1_ts__ts { 0% {transform: scale(1.5,1.5);animation-timing-function: cubic-bezier(0.26,0.01,1,1)} 26.666667% {transform: scale(1,1);animation-timing-function: cubic-bezier(0,0,0.7,1.01)} 50% {transform: scale(1.5,1.5);animation-timing-function: cubic-bezier(0.26,0.01,0.88,0.965)} 76.666667% {transform: scale(2.161799,2.161806);animation-timing-function: cubic-bezier(0,0,0.7,1.01)} 100% {transform: scale(1.582725,1.582726)}}
]]></style>
<defs><filter id="orbet_logo-2-s-path2-filter" x="-150%" width="400%" y="-150%" height="400%"><feGaussianBlur id="orbet_logo-2-s-path2-filter-blur-0" stdDeviation="1,1" result="result"/></filter><filter id="orbet_logo-2-s-path4-filter" x="-150%" width="400%" y="-150%" height="400%"><feGaussianBlur id="orbet_logo-2-s-path4-filter-blur-0" stdDeviation="1,1" result="result"/></filter><filter id="orbet_logo-2-u-b1_-filter" x="-150%" width="400%" y="-150%" height="400%"><feGaussianBlur id="orbet_logo-2-u-b1_-filter-blur-0" stdDeviation="1,1" result="result"/></filter><filter id="orbet_logo-2-s-ellipse2-filter" x="-150%" width="400%" y="-150%" height="400%"><feGaussianBlur id="orbet_logo-2-s-ellipse2-filter-blur-0" stdDeviation="8,8" result="result"/></filter><filter id="orbet_logo-2-u-b1_2-filter" x="-150%" width="400%" y="-150%" height="400%"><feGaussianBlur id="orbet_logo-2-u-b1_2-filter-blur-0" stdDeviation="1,1" result="result"/></filter><filter id="orbet_logo-2-s-ellipse3-filter" x="-150%" width="400%" y="-150%" height="400%"><feGaussianBlur id="orbet_logo-2-s-ellipse3-filter-blur-0" stdDeviation="8,8" result="result"/></filter><filter id="orbet_logo-2-u-sph2-filter" x="-150%" width="400%" y="-150%" height="400%"><feGaussianBlur id="orbet_logo-2-u-sph2-filter-blur-0" stdDeviation="1,1" result="result"/></filter><filter id="orbet_logo-2-s-ellipse4-filter" x="-150%" width="400%" y="-150%" height="400%"><feGaussianBlur id="orbet_logo-2-s-ellipse4-filter-blur-0" stdDeviation="8,8" result="result"/></filter><filter id="orbet_logo-2-s-ellipse5-filter" x="-150%" width="400%" y="-150%" height="400%"><feGaussianBlur id="orbet_logo-2-s-ellipse5-filter-blur-0" stdDeviation="2,2" result="result"/></filter><filter id="orbet_logo-2-s-ellipse6-filter" x="-150%" width="400%" y="-150%" height="400%"><feGaussianBlur id="orbet_logo-2-s-ellipse6-filter-blur-0" stdDeviation="6,6" result="result"/></filter><filter id="orbet_logo-2-s-ellipse7-filter" x="-150%" width="400%" y="-150%" height="400%"><feGaussianBlur id="orbet_logo-2-s-ellipse7-filter-blur-0" stdDeviation="6,6" result="result"/></filter><filter id="orbet_logo-2-s-ellipse8-filter" x="-150%" width="400%" y="-150%" height="400%"><feGaussianBlur id="orbet_logo-2-s-ellipse8-filter-blur-0" stdDeviation="2,2" result="result"/></filter></defs><g id="orbet_logo-2-u-ringg" style="isolation:isolate"><g id="orbet_logo-2-u-ringg-2"><path id="orbet_logo-2-s-path1" d="M165.12,82.32c0,0,10.01,10.9,1.68,17.04s-31.41,1.54-33.6,1.2-16.83-2.38-47.28-14.16-49.96-27.44-52.32-29.04-18-14.28-18-23.28s13.44-9.36,13.44-9.36-25.43-4.7-28.56,5.04c-2.25,6.98,9.17,22.18,26.16,34.8c3.92,2.91,19.83,14.15,42,24s37.74,14.87,47.52,18c21.41,6.85,61.47,10.36,65.28-.72s-16.32-23.52-16.32-23.52Z" fill="#0b70fd" stroke-width="0"/></g><g id="orbet_logo-2-u-ringg-22"><g id="orbet_logo-2-u-mask-group" style="mix-blend-mode:overlay" mask="url(#orbet_logo-2-u-masks)"><path id="orbet_logo-2-s-path2" d="M165.12,82.32c0,0,10.01,10.9,1.68,17.04s-31.41,1.54-33.6,1.2-16.83-2.38-47.28-14.16-49.96-27.44-52.32-29.04-18-14.28-18-23.28s13.44-9.36,13.44-9.36-25.43-4.7-28.56,5.04c-2.25,6.98,9.17,22.18,26.16,34.8c3.92,2.91,19.83,14.15,42,24s37.74,14.87,47.52,18c21.41,6.85,61.47,10.36,65.28-.72s-16.32-23.52-16.32-23.52Z" filter="url(#orbet_logo-2-s-path2-filter)" fill="#0550b8" stroke="#fff" stroke-width="3" stroke-miterlimit="1"/><mask id="orbet_logo-2-u-masks" mask-type="luminance" x="-150%" y="-150%" height="400%" width="400%"><g id="orbet_logo-2-u-ringg-23"><path id="orbet_logo-2-s-path3" d="M165.12,82.32c0,0,10.01,10.9,1.68,17.04s-31.41,1.54-33.6,1.2-16.83-2.38-47.28-14.16-49.96-27.44-52.32-29.04-18-14.28-18-23.28s13.44-9.36,13.44-9.36-25.43-4.7-28.56,5.04c-2.25,6.98,9.17,22.18,26.16,34.8c3.92,2.91,19.83,14.15,42,24s37.74,14.87,47.52,18c21.41,6.85,61.47,10.36,65.28-.72s-16.32-23.52-16.32-23.52Z" fill="#0b70fd" stroke-width="0"/></g></mask></g><g id="orbet_logo-2-u-mask-group2" style="mix-blend-mode:overlay" mask="url(#orbet_logo-2-u-masks2)"><path id="orbet_logo-2-s-path4" d="M165.12,82.32c0,0,10.01,10.9,1.68,17.04s-31.41,1.54-33.6,1.2-16.83-2.38-47.28-14.16-49.96-27.44-52.32-29.04-18-14.28-18-23.28s13.44-9.36,13.44-9.36-25.43-4.7-28.56,5.04c-2.25,6.98,9.17,22.18,26.16,34.8c3.92,2.91,19.83,14.15,42,24s37.74,14.87,47.52,18c21.41,6.85,61.47,10.36,65.28-.72s-16.32-23.52-16.32-23.52Z" filter="url(#orbet_logo-2-s-path4-filter)" fill="#0550b8" stroke="#fff" stroke-width="3" stroke-miterlimit="1"/><mask id="orbet_logo-2-u-masks2" mask-type="luminance" x="-150%" y="-150%" height="400%" width="400%"><g id="orbet_logo-2-u-ringg-24"><path id="orbet_logo-2-s-path5" d="M165.12,82.32c0,0,10.01,10.9,1.68,17.04s-31.41,1.54-33.6,1.2-16.83-2.38-47.28-14.16-49.96-27.44-52.32-29.04-18-14.28-18-23.28s13.44-9.36,13.44-9.36-25.43-4.7-28.56,5.04c-2.25,6.98,9.17,22.18,26.16,34.8c3.92,2.91,19.83,14.15,42,24s37.74,14.87,47.52,18c21.41,6.85,61.47,10.36,65.28-.72s-16.32-23.52-16.32-23.52Z" fill="#0b70fd" stroke-width="0"/></g></mask></g></g></g><g id="orbet_logo-2-u-txt" transform="translate(0 0.000001)"><g id="orbet_logo-2-u-r" style="isolation:isolate"><g id="orbet_logo-2-u-r-2"><path id="orbet_logo-2-s-path6" d="M250.8,68.16c0,0,24.95-4.84,25.2-33.12.11-12.21-6.4-22.47-14.4-27.84C251.07,0.13,238.76,0,234.72,0h-46.56v113.04h27.84v-42.48h6.48l23.28,42.48h31.2L250.8,68.16ZM235.2,50.88h-19.44v-27.84h19.2c0,0,13.12-.13,12.96,13.92s-12.72,13.92-12.72,13.92Z" fill="#fff" stroke-width="0"/></g></g><g id="orbet_logo-2-u-b" style="isolation:isolate"><g id="orbet_logo-2-u-b-2"><path id="orbet_logo-2-s-path7" d="M368.4,54.96c0,0,20.76-4.05,18.96-28.56s-28.14-26.46-36.24-26.16C346.02,0.34,300,0,300,0v113.04h55.2c4.7,0,32.24-1.84,35.04-27.36.96-27.12-21.84-30.72-21.84-30.72ZM327.6,22.08h19.92c2.16,0,12.42,1.14,12.24,12-.24,11.76-10.96,11.68-12.72,11.76s-19.44,0-19.44,0v-23.76Zm21.12,68.88c-1.92.08-21.12,0-21.12,0v-25.2h22.08c0,0,12.72.32,12.72,12.72s-11.76,12.4-13.68,12.48Z" fill="#fff" stroke-width="0"/></g></g><g id="orbet_logo-2-u-e" style="isolation:isolate"><g id="orbet_logo-2-u-e-2"><polygon id="orbet_logo-2-s-polygon1" points="482.16,22.08 482.16,0 412.8,0 412.8,113.04 482.16,113.04 482.16,90.96 440.4,90.96 440.4,66.24 477.36,66.24 477.36,44.88 440.4,44.88 440.4,22.08 482.16,22.08" fill="#fff" stroke-width="0"/></g></g><g id="orbet_logo-2-u-t" style="isolation:isolate"><g id="orbet_logo-2-u-t-2"><polygon id="orbet_logo-2-s-polygon2" points="500.88,0 500.88,22.32 530.64,22.32 530.64,113.04 558.48,113.04 558.48,22.32 588.24,22.32 588.24,0 500.88,0" fill="#fff" stroke-width="0"/></g></g></g><g id="orbet_logo-2-u-b1_" style="mix-blend-mode:color-dodge" transform="translate(.000001 0)" filter="url(#orbet_logo-2-u-b1_-filter)"><g id="orbet_logo-2-u-mask-group3" mask="url(#orbet_logo-2-u-masks3)"><g id="orbet_logo-2-s-ellipse2_to" style="offset-path:path('M9.101215,32.256739C14.106326,20.454513,55.113202,26.556506,100.692636,45.885924C146.272069,65.215342,179.164055,90.452525,174.158943,102.254751C169.153832,114.056977,128.146956,107.954984,82.567522,88.625566C36.988089,69.296148,4.096103,44.058965,9.101215,32.256739');offset-rotate:0deg"><ellipse id="orbet_logo-2-s-ellipse2" rx="15.62718" ry="15.62718" transform="rotate(23.887777) scale(1.16406,1.168904) translate(0,0)" filter="url(#orbet_logo-2-s-ellipse2-filter)" fill="#5675b3" stroke-width="0"/></g><mask id="orbet_logo-2-u-masks3" mask-type="luminance" x="-150%" y="-150%" height="400%" width="400%"><path id="orbet_logo-2-s-path8" d="M97.774306,47.026334Q14.278036,10.612895,0.588441,27.620959c-6.058264,17.25148,31.336125,43.642105,70.425538,61.575308c52.974964,24.323242,98.886843,29.420234,109.327707,17.690665q11.892811-19.671255-82.479624-59.772843q82.687254,36.204343,70.073225,50.304758c-9.58956,11.029626-58.693068-.503418-92.142778-15.574167s-63.077485-35.533198-60.133492-51.143187Q18.60301,15.091504,97.774306,47.026334Z" transform="translate(.326252 0.61131)" fill="#fff" stroke-width="1.216"/></mask></g></g><g id="orbet_logo-2-u-b1_2" style="mix-blend-mode:soft-light" transform="translate(.000001 0)" filter="url(#orbet_logo-2-u-b1_2-filter)"><g id="orbet_logo-2-u-mask-group4" mask="url(#orbet_logo-2-u-masks4)"><g id="orbet_logo-2-s-ellipse3_to" style="offset-path:path('M9.101215,32.256739C14.106326,20.454513,55.113202,26.556506,100.692636,45.885924C146.272069,65.215342,179.164055,90.452525,174.158943,102.254751C169.153832,114.056977,128.146956,107.954984,82.567522,88.625566C36.988089,69.296148,4.096103,44.058965,9.101215,32.256739');offset-rotate:0deg"><ellipse id="orbet_logo-2-s-ellipse3" rx="15.62718" ry="15.62718" transform="rotate(23.887777) scale(1.16406,1.168904) translate(0,0)" filter="url(#orbet_logo-2-s-ellipse3-filter)" fill="#5675b3" stroke-width="0"/></g><mask id="orbet_logo-2-u-masks4" mask-type="luminance" x="-150%" y="-150%" height="400%" width="400%"><path id="orbet_logo-2-s-path9" d="M97.774306,47.026334Q14.278036,10.612895,0.588441,27.620959c-6.058264,17.25148,31.336125,43.642105,70.425538,61.575308c52.974964,24.323242,98.886843,29.420234,109.327707,17.690665q11.892811-19.671255-82.479624-59.772843q82.687254,36.204343,70.073225,50.304758c-9.58956,11.029626-58.693068-.503418-92.142778-15.574167s-63.077485-35.533198-60.133492-51.143187Q18.60301,15.091504,97.774306,47.026334Z" transform="translate(.326252 0.61131)" fill="#fff" stroke-width="1.216"/></mask></g></g><g id="orbet_logo-2-u-sph2" style="mix-blend-mode:color-dodge" transform="translate(.000001 0)" filter="url(#orbet_logo-2-u-sph2-filter)"><g id="orbet_logo-2-u-mask-group5" mask="url(#orbet_logo-2-u-masks5)"><g id="orbet_logo-2-s-ellipse4_to" style="offset-path:path('M9.101215,32.256739C14.106326,20.454513,55.113202,26.556506,100.692636,45.885924C146.272069,65.215342,179.164055,90.452525,174.158943,102.254751C169.153832,114.056977,128.146956,107.954984,82.567522,88.625566C36.988089,69.296148,4.096103,44.058965,9.101215,32.256739');offset-rotate:0deg"><ellipse id="orbet_logo-2-s-ellipse4" rx="15.62718" ry="15.62718" transform="rotate(23.887777) scale(2.024646,2.033083) translate(0,0)" filter="url(#orbet_logo-2-s-ellipse4-filter)" fill="#5675b3" stroke-width="0"/></g><mask id="orbet_logo-2-u-masks5" mask-type="luminance" x="-150%" y="-150%" height="400%" width="400%"><path id="orbet_logo-2-s-path10" d="M97.774306,47.026334Q16.557108,9.254051,1.123564,25.789991C-9.360596,37.02302,31.924566,71.263064,71.013979,89.196267C123.988943,113.519509,173.831,118.544813,181.84294,104.924515Q189.053686,80.2878,97.862062,47.114089q82.687254,36.204343,70.073225,50.304758c-9.58956,11.029626-58.693068-.503418-92.142778-15.574167s-61.881152-35.770604-57.471568-50.983668q4.409584-15.213064,79.453365,16.165322Z" transform="translate(.326252 0.61131)" fill="#fff" stroke-width="1.216"/></mask></g></g><g id="orbet_logo-2-u-sph1_to" style="offset-path:path('M9.101216,32.256739C14.106327,20.454513,55.113203,26.556506,100.692637,45.885924C146.27207,65.215342,173.999807,81.718473,173.044964,97.650706C172.090121,113.582939,128.146957,107.954984,82.567523,88.625566Q36.98809,69.296148,8.951488,37.274559');offset-rotate:0deg"><g id="orbet_logo-2-u-sph1_ts" transform="scale(1.5,1.5)"><g id="orbet_logo-2-u-sph1" transform="translate(-68.289956,-83.066359)"><ellipse id="orbet_logo-2-s-ellipse5" style="mix-blend-mode:screen" rx="8.91731" ry="8.91731" transform="matrix(.755406 0 0 0.755408 68.454258 83.256265)" filter="url(#orbet_logo-2-s-ellipse5-filter)" fill="#fff" stroke-width="0"/><ellipse id="orbet_logo-2-s-ellipse6" style="mix-blend-mode:color-dodge" rx="8.91731" ry="8.91731" transform="matrix(1.106289 0 0 1.106285 68.454258 83.256265)" filter="url(#orbet_logo-2-s-ellipse6-filter)" fill="#16c6fd" stroke-width="0"/><ellipse id="orbet_logo-2-s-ellipse7" style="mix-blend-mode:overlay" rx="8.91731" ry="8.91731" transform="matrix(1.106289 0 0 1.106285 68.454258 83.256265)" filter="url(#orbet_logo-2-s-ellipse7-filter)" fill="#16c6fd" stroke-width="0"/><ellipse id="orbet_logo-2-s-ellipse8" rx="8.91731" ry="8.91731" transform="matrix(.755406 0 0 0.755408 68.454258 83.256265)" filter="url(#orbet_logo-2-s-ellipse8-filter)" fill="#fff" stroke-width="0"/></g></g></g><g id="orbet_logo-2-u-o" style="isolation:isolate"><g id="orbet_logo-2-u-o-2"><path id="orbet_logo-2-s-path11" d="M92.36,0.97c-27.89,0-51.59,17.89-60.29,42.81c2.64,1.98,6.43,4.85,8.97,6.86c2.87,2.27,7.01,4.87,9.4,6.32C54.15,37.2,71.48,22.24,92.32,22.24c23.54,0,42.63,19.08,42.63,42.63c0,9.07-2.84,17.47-7.67,24.38c1.83.61,5.47,1.71,9.77,2.44c4.48.76,9.35,1.41,12.38,1.8c4.34-8.62,6.79-18.35,6.79-28.65-.01-35.28-28.6-63.87-63.86-63.87Z" fill="#fff" stroke-width="0"/></g></g></svg>
