<svg width="189" height="204" viewBox="0 0 189 204" fill="none" xmlns="http://www.w3.org/2000/svg">
<g filter="url(#filter0_f_1_2)">
<ellipse cx="94.5" cy="102" rx="45" ry="53" fill="#AEAD0A"/>
</g>
<g filter="url(#filter1_f_1_2)">
<ellipse cx="94.5" cy="102" rx="36" ry="42" fill="#C8C639"/>
</g>
<g filter="url(#filter2_f_1_2)">
<ellipse cx="94.5" cy="91" rx="21" ry="24" fill="#C8C639"/>
</g>
<path d="M70.909 101V82.46L73.939 85.34H67.309V80H77.989V101H70.909ZM90.378 101.48C88.518 101.48 86.868 101.05 85.428 100.19C84.008 99.33 82.888 98.08 82.068 96.44C81.268 94.8 80.868 92.82 80.868 90.5C80.868 88.18 81.268 86.2 82.068 84.56C82.888 82.92 84.008 81.67 85.428 80.81C86.868 79.95 88.518 79.52 90.378 79.52C92.238 79.52 93.878 79.95 95.298 80.81C96.738 81.67 97.858 82.92 98.658 84.56C99.478 86.2 99.888 88.18 99.888 90.5C99.888 92.82 99.478 94.8 98.658 96.44C97.858 98.08 96.738 99.33 95.298 100.19C93.878 101.05 92.238 101.48 90.378 101.48ZM90.378 95.81C90.838 95.81 91.248 95.65 91.608 95.33C91.968 95.01 92.248 94.46 92.448 93.68C92.668 92.9 92.778 91.84 92.778 90.5C92.778 89.14 92.668 88.08 92.448 87.32C92.248 86.54 91.968 85.99 91.608 85.67C91.248 85.35 90.838 85.19 90.378 85.19C89.918 85.19 89.508 85.35 89.148 85.67C88.788 85.99 88.498 86.54 88.278 87.32C88.078 88.08 87.978 89.14 87.978 90.5C87.978 91.84 88.078 92.9 88.278 93.68C88.498 94.46 88.788 95.01 89.148 95.33C89.508 95.65 89.918 95.81 90.378 95.81ZM111.45 101.48C109.59 101.48 107.94 101.05 106.5 100.19C105.08 99.33 103.96 98.08 103.14 96.44C102.34 94.8 101.94 92.82 101.94 90.5C101.94 88.18 102.34 86.2 103.14 84.56C103.96 82.92 105.08 81.67 106.5 80.81C107.94 79.95 109.59 79.52 111.45 79.52C113.31 79.52 114.95 79.95 116.37 80.81C117.81 81.67 118.93 82.92 119.73 84.56C120.55 86.2 120.96 88.18 120.96 90.5C120.96 92.82 120.55 94.8 119.73 96.44C118.93 98.08 117.81 99.33 116.37 100.19C114.95 101.05 113.31 101.48 111.45 101.48ZM111.45 95.81C111.91 95.81 112.32 95.65 112.68 95.33C113.04 95.01 113.32 94.46 113.52 93.68C113.74 92.9 113.85 91.84 113.85 90.5C113.85 89.14 113.74 88.08 113.52 87.32C113.32 86.54 113.04 85.99 112.68 85.67C112.32 85.35 111.91 85.19 111.45 85.19C110.99 85.19 110.58 85.35 110.22 85.67C109.86 85.99 109.57 86.54 109.35 87.32C109.15 88.08 109.05 89.14 109.05 90.5C109.05 91.84 109.15 92.9 109.35 93.68C109.57 94.46 109.86 95.01 110.22 95.33C110.58 95.65 110.99 95.81 111.45 95.81ZM69.3578 117.8H78.7178V122.9H69.3578V117.8ZM69.8378 125.66H80.3378V131H62.8778V110H79.9478V115.34H69.8378V125.66ZM93.4133 131.48C90.1933 131.48 87.6833 130.61 85.8833 128.87C84.0833 127.13 83.1833 124.69 83.1833 121.55V110H90.2633V121.34C90.2633 122.94 90.5533 124.08 91.1333 124.76C91.7133 125.42 92.4933 125.75 93.4733 125.75C94.4733 125.75 95.2533 125.42 95.8133 124.76C96.3933 124.08 96.6833 122.94 96.6833 121.34V110H103.643V121.55C103.643 124.69 102.743 127.13 100.943 128.87C99.1433 130.61 96.6333 131.48 93.4133 131.48ZM107.189 131V110H117.299C119.259 110 120.949 110.32 122.369 110.96C123.809 111.6 124.919 112.52 125.699 113.72C126.479 114.9 126.869 116.3 126.869 117.92C126.869 119.54 126.479 120.94 125.699 122.12C124.919 123.28 123.809 124.17 122.369 124.79C120.949 125.41 119.259 125.72 117.299 125.72H111.119L114.269 122.81V131H107.189ZM119.759 131L114.599 123.35H122.099L127.319 131H119.759ZM114.269 123.59L111.119 120.38H116.849C117.829 120.38 118.549 120.16 119.009 119.72C119.489 119.28 119.729 118.68 119.729 117.92C119.729 117.16 119.489 116.56 119.009 116.12C118.549 115.68 117.829 115.46 116.849 115.46H111.119L114.269 112.25V123.59Z" fill="#FFFDFB"/>
<defs>
<filter id="filter0_f_1_2" x="0.5" y="0" width="188" height="204" filterUnits="userSpaceOnUse" color-interpolation-filters="sRGB">
<feFlood flood-opacity="0" result="BackgroundImageFix"/>
<feBlend mode="normal" in="SourceGraphic" in2="BackgroundImageFix" result="shape"/>
<feGaussianBlur stdDeviation="24.5" result="effect1_foregroundBlur_1_2"/>
</filter>
<filter id="filter1_f_1_2" x="24.5" y="26" width="140" height="152" filterUnits="userSpaceOnUse" color-interpolation-filters="sRGB">
<feFlood flood-opacity="0" result="BackgroundImageFix"/>
<feBlend mode="normal" in="SourceGraphic" in2="BackgroundImageFix" result="shape"/>
<feGaussianBlur stdDeviation="17" result="effect1_foregroundBlur_1_2"/>
</filter>
<filter id="filter2_f_1_2" x="39.5" y="33" width="110" height="116" filterUnits="userSpaceOnUse" color-interpolation-filters="sRGB">
<feFlood flood-opacity="0" result="BackgroundImageFix"/>
<feBlend mode="normal" in="SourceGraphic" in2="BackgroundImageFix" result="shape"/>
<feGaussianBlur stdDeviation="17" result="effect1_foregroundBlur_1_2"/>
</filter>
</defs>
</svg>
